<!DOCTYPE svg PUBLIC "-//W3C//DTD SVG 1.1//EN" "http://www.w3.org/Graphics/SVG/1.1/DTD/svg11.dtd">

<!-- Uploaded to: SVG Repo, www.svgrepo.com, Transformed by: SVG Repo Mixer Tools -->
<svg fill="#4deeea" height="800px" width="800px" version="1.1" id="Layer_1" xmlns="http://www.w3.org/2000/svg" xmlns:xlink="http://www.w3.org/1999/xlink" viewBox="0 0 512 512" xml:space="preserve">

<g id="SVGRepo_bgCarrier" stroke-width="0"/>

<g id="SVGRepo_tracerCarrier" stroke-linecap="round" stroke-linejoin="round"/>

<g id="SVGRepo_iconCarrier"> <g> <g> <path d="M256,0C114.84,0,0,114.842,0,256c0,36.288,7.405,71.246,22.024,104.029L0.344,484.741 c-1.297,7.461,1.119,15.087,6.473,20.441C11.219,509.584,17.154,512,23.271,512c1.325,0,2.659-0.113,3.987-0.346l124.709-21.679 C184.753,504.595,219.712,512,256,512c141.158,0,256-114.843,256-256C512,114.842,397.16,0,256,0z M209.455,325.818h-93.091 c-9.413,0-17.898-5.671-21.501-14.367c-3.601-8.696-1.61-18.708,5.046-25.364l53.361-53.36h-36.906 c-12.853,0-23.273-10.42-23.273-23.273c0-12.853,10.42-23.273,23.273-23.273h93.091c9.413,0,17.898,5.669,21.501,14.367 c3.601,8.695,1.61,18.707-5.046,25.363l-53.361,53.361h36.906c12.853,0,23.273,10.418,23.273,23.273 C232.727,315.397,222.307,325.818,209.455,325.818z M395.636,325.818h-93.091c-9.413,0-17.898-5.671-21.501-14.367 c-3.601-8.696-1.61-18.708,5.046-25.364l53.361-53.36h-36.906c-12.853,0-23.273-10.42-23.273-23.273 c0-12.853,10.42-23.273,23.273-23.273h93.091c9.413,0,17.898,5.669,21.501,14.367c3.601,8.695,1.61,18.707-5.046,25.363 l-53.361,53.361h36.906c12.853,0,23.273,10.418,23.273,23.273C418.909,315.397,408.489,325.818,395.636,325.818z"/> </g> </g> </g>

</svg>